<mxfile host="app.diagrams.net" modified="2024-04-08T08:34:31.373Z" agent="Mozilla/5.0 (Macintosh; Intel Mac OS X 10_15_7) AppleWebKit/537.36 (KHTML, like Gecko) Chrome/123.0.0.0 Safari/537.36" etag="MVa8PeVP0oPErh-bPtXV" version="24.2.2" type="github">
  <diagram id="C5RBs43oDa-KdzZeNtuy" name="Page-1">
    <mxGraphModel dx="3160" dy="3325" grid="1" gridSize="10" guides="1" tooltips="1" connect="1" arrows="1" fold="1" page="1" pageScale="1" pageWidth="827" pageHeight="1169" math="0" shadow="0">
      <root>
        <mxCell id="WIyWlLk6GJQsqaUBKTNV-0" />
        <mxCell id="WIyWlLk6GJQsqaUBKTNV-1" parent="WIyWlLk6GJQsqaUBKTNV-0" />
        <mxCell id="2u9Lr5ev54aJ0xhAcx-F-153" value="" style="shape=process;whiteSpace=wrap;html=1;backgroundOutline=1;size=0.019230769230768795;fillColor=#f5f5f5;fontColor=#333333;strokeColor=#666666;" parent="WIyWlLk6GJQsqaUBKTNV-1" vertex="1">
          <mxGeometry x="2960" y="280" width="2110" height="370" as="geometry" />
        </mxCell>
        <mxCell id="2u9Lr5ev54aJ0xhAcx-F-0" value="" style="shape=process;whiteSpace=wrap;html=1;backgroundOutline=1;size=0.027777777777777776;fillColor=#f5f5f5;fontColor=#333333;strokeColor=#666666;" parent="WIyWlLk6GJQsqaUBKTNV-1" vertex="1">
          <mxGeometry x="310" y="260" width="2490" height="610" as="geometry" />
        </mxCell>
        <mxCell id="KHEqhmemuUmemL8KXpCi-22" value="Python application space" style="html=1;overflow=block;blockSpacing=1;whiteSpace=wrap;fontSize=16.7;fontColor=#3a414a;fontStyle=1;align=left;spacing=9;strokeOpacity=0;fillOpacity=0;rounded=1;absoluteArcSize=1;arcSize=9;fillColor=#000000;strokeWidth=1.5;lucidId=uomkAWNqSnUE;" parent="WIyWlLk6GJQsqaUBKTNV-1" vertex="1">
          <mxGeometry x="32" y="422.82" width="239" height="75" as="geometry" />
        </mxCell>
        <mxCell id="KHEqhmemuUmemL8KXpCi-26" value="GStreamer space" style="html=1;overflow=block;blockSpacing=1;whiteSpace=wrap;fontSize=16.7;fontColor=#3a414a;fontStyle=1;align=left;spacing=9;verticalAlign=middle;strokeOpacity=0;fillOpacity=0;rounded=1;absoluteArcSize=1;arcSize=9;fillColor=#000000;strokeWidth=1.5;lucidId=13mkEYLY9BoW;" parent="WIyWlLk6GJQsqaUBKTNV-1" vertex="1">
          <mxGeometry x="32" y="477.65999999999997" width="239" height="90" as="geometry" />
        </mxCell>
        <mxCell id="twscV9d3X2h7jSA2qiTa-33" style="edgeStyle=orthogonalEdgeStyle;rounded=0;orthogonalLoop=1;jettySize=auto;html=1;entryX=0;entryY=0.5;entryDx=0;entryDy=0;" parent="WIyWlLk6GJQsqaUBKTNV-1" source="twscV9d3X2h7jSA2qiTa-23" target="twscV9d3X2h7jSA2qiTa-24" edge="1">
          <mxGeometry relative="1" as="geometry" />
        </mxCell>
        <mxCell id="twscV9d3X2h7jSA2qiTa-23" value="&lt;br&gt;aravissrc&lt;div&gt;&lt;font style=&quot;font-size: 14px;&quot;&gt;Lucid Camera&amp;nbsp;&lt;/font&gt;&lt;/div&gt;" style="html=1;overflow=block;blockSpacing=1;whiteSpace=wrap;fontSize=18.3;align=center;spacing=3.8;verticalAlign=top;strokeColor=#6c8ebf;strokeOpacity=100;fillOpacity=100;rounded=1;absoluteArcSize=1;arcSize=9;fillColor=#dae8fc;strokeWidth=1.5;lucidId=4MOiysq~3Pvm;" parent="WIyWlLk6GJQsqaUBKTNV-1" vertex="1">
          <mxGeometry x="414" y="629.9994573632282" width="173" height="100.8220126982532" as="geometry" />
        </mxCell>
        <mxCell id="vHRJUm5Y4Nl0mSGD9Oha-6" style="edgeStyle=orthogonalEdgeStyle;rounded=0;orthogonalLoop=1;jettySize=auto;html=1;" edge="1" parent="WIyWlLk6GJQsqaUBKTNV-1" source="twscV9d3X2h7jSA2qiTa-24" target="vHRJUm5Y4Nl0mSGD9Oha-5">
          <mxGeometry relative="1" as="geometry" />
        </mxCell>
        <mxCell id="twscV9d3X2h7jSA2qiTa-24" value="&lt;div style=&quot;display: flex; justify-content: center; text-align: center; align-items: baseline; line-height: 1.25; margin-top: -2px;&quot;&gt;&lt;span style=&quot;color: rgb(58, 65, 74);&quot;&gt;&lt;br&gt;&lt;span style=&quot;font-size: 18.3px;&quot;&gt;processing element&lt;/span&gt;&lt;br&gt;&lt;font style=&quot;font-size: 14px;&quot;&gt;color / h264 / mp4&lt;/font&gt;&lt;/span&gt;&lt;/div&gt;" style="html=1;overflow=block;blockSpacing=1;whiteSpace=wrap;fontSize=13;spacing=3.8;verticalAlign=top;strokeColor=#6c8ebf;strokeOpacity=100;fillOpacity=100;rounded=1;absoluteArcSize=1;arcSize=9;fillColor=#dae8fc;strokeWidth=1.5;lucidId=0~OilkY4ChpM;" parent="WIyWlLk6GJQsqaUBKTNV-1" vertex="1">
          <mxGeometry x="654" y="629.9994573632282" width="190" height="100.8220126982532" as="geometry" />
        </mxCell>
        <mxCell id="vHRJUm5Y4Nl0mSGD9Oha-13" style="edgeStyle=orthogonalEdgeStyle;rounded=0;orthogonalLoop=1;jettySize=auto;html=1;entryX=0;entryY=0.5;entryDx=0;entryDy=0;dashed=1;strokeWidth=2;" edge="1" parent="WIyWlLk6GJQsqaUBKTNV-1" source="twscV9d3X2h7jSA2qiTa-25" target="2u9Lr5ev54aJ0xhAcx-F-25">
          <mxGeometry relative="1" as="geometry">
            <Array as="points">
              <mxPoint x="1450" y="781" />
              <mxPoint x="1450" y="130" />
            </Array>
          </mxGeometry>
        </mxCell>
        <mxCell id="twscV9d3X2h7jSA2qiTa-25" value="&lt;div style=&quot;display: flex; justify-content: center; text-align: center; align-items: baseline; line-height: 1.25; margin-top: -2px;&quot;&gt;&lt;span style=&quot;color: rgb(58, 65, 74);&quot;&gt;&lt;br&gt;&lt;span style=&quot;font-size: 18.3px;&quot;&gt;splitmuxsink&lt;/span&gt;&lt;br&gt;&lt;font style=&quot;font-size: 14px;&quot;&gt;store 1min every 1min&lt;/font&gt;&lt;/span&gt;&lt;/div&gt;" style="html=1;overflow=block;blockSpacing=1;whiteSpace=wrap;fontSize=13;spacing=3.8;verticalAlign=top;strokeColor=#6c8ebf;strokeOpacity=100;fillOpacity=100;rounded=1;absoluteArcSize=1;arcSize=9;fillColor=#dae8fc;strokeWidth=1.5;lucidId=0~OilkY4ChpM;" parent="WIyWlLk6GJQsqaUBKTNV-1" vertex="1">
          <mxGeometry x="1200" y="730.8194573632281" width="190" height="100.8220126982532" as="geometry" />
        </mxCell>
        <mxCell id="twscV9d3X2h7jSA2qiTa-26" value="Prepare / launch capture GStreamer pipeline" style="html=1;overflow=block;blockSpacing=1;whiteSpace=wrap;fontSize=20;fontColor=#3a414a;spacing=9;strokeColor=#3a414a;strokeOpacity=100;fillOpacity=100;rounded=1;absoluteArcSize=1;arcSize=9;fillColor=#ffdda6;strokeWidth=1.5;lucidId=Gkmk1B4An0wA;" parent="WIyWlLk6GJQsqaUBKTNV-1" vertex="1">
          <mxGeometry x="371" y="384.03999999999996" width="259" height="63.62" as="geometry" />
        </mxCell>
        <mxCell id="twscV9d3X2h7jSA2qiTa-27" value="" style="html=1;jettySize=18;whiteSpace=wrap;overflow=block;blockSpacing=1;fontSize=13;strokeColor=#979ea8;strokeOpacity=100;dashed=1;fixDash=1;strokeWidth=3;rounded=1;arcSize=12;edgeStyle=orthogonalEdgeStyle;startArrow=none;endArrow=open;exitX=0.5;exitY=1;lucidId=xBqm8k~~4JgI;entryX=0.5;entryY=0;entryDx=0;entryDy=0;exitDx=0;exitDy=0;" parent="WIyWlLk6GJQsqaUBKTNV-1" source="twscV9d3X2h7jSA2qiTa-26" target="twscV9d3X2h7jSA2qiTa-23" edge="1">
          <mxGeometry width="100" height="100" relative="1" as="geometry">
            <Array as="points">
              <mxPoint x="500" y="545" />
            </Array>
            <mxPoint x="52.72000000000003" y="-57.51153846153841" as="sourcePoint" />
            <mxPoint x="526.5" y="726.0994573632279" as="targetPoint" />
          </mxGeometry>
        </mxCell>
        <mxCell id="twscV9d3X2h7jSA2qiTa-29" value="" style="html=1;overflow=block;blockSpacing=1;whiteSpace=wrap;fontSize=13;spacing=0;strokeColor=#ced4db;strokeOpacity=100;rounded=1;absoluteArcSize=1;arcSize=9;strokeWidth=3;lucidId=4jmkHQJY3b9r;" parent="WIyWlLk6GJQsqaUBKTNV-1" vertex="1">
          <mxGeometry x="20" y="235" width="6330" height="3" as="geometry" />
        </mxCell>
        <mxCell id="twscV9d3X2h7jSA2qiTa-30" value="Data" style="html=1;overflow=block;blockSpacing=1;whiteSpace=wrap;fontSize=16.7;fontColor=#3a414a;fontStyle=1;align=left;spacing=9;strokeOpacity=0;fillOpacity=0;rounded=1;absoluteArcSize=1;arcSize=9;fillColor=#000000;strokeWidth=1.5;lucidId=uomkAWNqSnUE;" parent="WIyWlLk6GJQsqaUBKTNV-1" vertex="1">
          <mxGeometry x="40" y="170" width="239" height="75" as="geometry" />
        </mxCell>
        <mxCell id="2u9Lr5ev54aJ0xhAcx-F-8" value="&lt;div style=&quot;display: flex; justify-content: center; text-align: center; align-items: baseline; font-size: 0; line-height: 1.25;margin-top: -2px;&quot;&gt;&lt;span&gt;&lt;span style=&quot;font-size:18.3px;color:#3a414a;&quot;&gt;&lt;br&gt;Sink&lt;br&gt;&lt;/span&gt;&lt;span style=&quot;font-size:18.3px;color:#3a414a;font-style: italic;&quot;&gt;fakesink&lt;/span&gt;&lt;/span&gt;&lt;/div&gt;" style="html=1;overflow=block;blockSpacing=1;whiteSpace=wrap;fontSize=13;spacing=3.8;verticalAlign=top;strokeColor=#6c8ebf;strokeOpacity=100;fillOpacity=100;rounded=1;absoluteArcSize=1;arcSize=9;fillColor=#dae8fc;strokeWidth=1.5;lucidId=LZbpuTU28Y_f;" parent="WIyWlLk6GJQsqaUBKTNV-1" vertex="1">
          <mxGeometry x="1750" y="566.1000000000001" width="173" height="101" as="geometry" />
        </mxCell>
        <mxCell id="vHRJUm5Y4Nl0mSGD9Oha-10" style="edgeStyle=orthogonalEdgeStyle;rounded=0;orthogonalLoop=1;jettySize=auto;html=1;" edge="1" parent="WIyWlLk6GJQsqaUBKTNV-1" source="2u9Lr5ev54aJ0xhAcx-F-13" target="2u9Lr5ev54aJ0xhAcx-F-15">
          <mxGeometry relative="1" as="geometry" />
        </mxCell>
        <mxCell id="2u9Lr5ev54aJ0xhAcx-F-13" value="&lt;div style=&quot;display: flex; justify-content: center; text-align: center; align-items: baseline; font-size: 0; line-height: 1.25;margin-top: -2px;&quot;&gt;&lt;span&gt;&lt;span style=&quot;font-size:18.3px;color:#3a414a;&quot;&gt;&#xa;AI models inference&#xa;&lt;/span&gt;&lt;span style=&quot;font-size:18.3px;color:#3a414a;font-style: italic;&quot;&gt;nvinfer&lt;/span&gt;&lt;/span&gt;&lt;/div&gt;" style="html=1;overflow=block;blockSpacing=1;whiteSpace=wrap;fontSize=13;spacing=3.8;verticalAlign=top;strokeColor=#6c8ebf;strokeOpacity=100;fillOpacity=100;rounded=1;absoluteArcSize=1;arcSize=9;fillColor=#dae8fc;strokeWidth=1.5;lucidId=LZbpjBvLfDu2;" parent="WIyWlLk6GJQsqaUBKTNV-1" vertex="1">
          <mxGeometry x="1200" y="566.1" width="190" height="101" as="geometry" />
        </mxCell>
        <mxCell id="vHRJUm5Y4Nl0mSGD9Oha-11" style="edgeStyle=orthogonalEdgeStyle;rounded=0;orthogonalLoop=1;jettySize=auto;html=1;" edge="1" parent="WIyWlLk6GJQsqaUBKTNV-1" source="2u9Lr5ev54aJ0xhAcx-F-15" target="2u9Lr5ev54aJ0xhAcx-F-8">
          <mxGeometry relative="1" as="geometry" />
        </mxCell>
        <mxCell id="2u9Lr5ev54aJ0xhAcx-F-15" value="&lt;div style=&quot;display: flex; justify-content: center; text-align: center; align-items: baseline; font-size: 0; line-height: 1.25;margin-top: -2px;&quot;&gt;&lt;span&gt;&lt;span style=&quot;font-size:18.3px;color:#3a414a;&quot;&gt;&lt;br&gt;tracker&lt;br&gt;&lt;/span&gt;&lt;span style=&quot;font-size:18.3px;color:#3a414a;font-style: italic;&quot;&gt;custom mussp*&lt;/span&gt;&lt;/span&gt;&lt;/div&gt;" style="html=1;overflow=block;blockSpacing=1;whiteSpace=wrap;fontSize=13;spacing=3.8;verticalAlign=top;strokeColor=#6c8ebf;strokeOpacity=100;fillOpacity=100;rounded=1;absoluteArcSize=1;arcSize=9;fillColor=#dae8fc;strokeWidth=1.5;lucidId=LZbpP9IEYEh~;" parent="WIyWlLk6GJQsqaUBKTNV-1" vertex="1">
          <mxGeometry x="1481" y="566.1000000000001" width="173" height="101" as="geometry" />
        </mxCell>
        <mxCell id="vHRJUm5Y4Nl0mSGD9Oha-26" style="edgeStyle=orthogonalEdgeStyle;rounded=0;orthogonalLoop=1;jettySize=auto;html=1;entryX=0.5;entryY=0;entryDx=0;entryDy=0;dashed=1;strokeWidth=2;" edge="1" parent="WIyWlLk6GJQsqaUBKTNV-1" source="2u9Lr5ev54aJ0xhAcx-F-25" target="2u9Lr5ev54aJ0xhAcx-F-182">
          <mxGeometry relative="1" as="geometry">
            <Array as="points">
              <mxPoint x="1830" y="130" />
              <mxPoint x="1830" y="-160" />
              <mxPoint x="4687" y="-160" />
            </Array>
          </mxGeometry>
        </mxCell>
        <mxCell id="2u9Lr5ev54aJ0xhAcx-F-25" value="&lt;span style=&quot;font-size: medium;&quot;&gt;One minute mp4&lt;/span&gt;&lt;br style=&quot;font-size: medium;&quot;&gt;&lt;span style=&quot;font-size: medium;&quot;&gt;video file&lt;/span&gt;" style="shape=dataStorage;whiteSpace=wrap;html=1;fixedSize=1;fillColor=#ffe6cc;strokeColor=#d79b00;" parent="WIyWlLk6GJQsqaUBKTNV-1" vertex="1">
          <mxGeometry x="1530" y="90" width="200" height="80" as="geometry" />
        </mxCell>
        <mxCell id="2u9Lr5ev54aJ0xhAcx-F-111" style="edgeStyle=orthogonalEdgeStyle;rounded=0;orthogonalLoop=1;jettySize=auto;html=1;entryX=0;entryY=0.25;entryDx=0;entryDy=0;" parent="WIyWlLk6GJQsqaUBKTNV-1" source="2u9Lr5ev54aJ0xhAcx-F-56" target="2u9Lr5ev54aJ0xhAcx-F-59" edge="1">
          <mxGeometry relative="1" as="geometry">
            <Array as="points">
              <mxPoint x="2280" y="416" />
              <mxPoint x="2280" y="300" />
              <mxPoint x="1800" y="300" />
              <mxPoint x="1800" y="393" />
            </Array>
          </mxGeometry>
        </mxCell>
        <mxCell id="vHRJUm5Y4Nl0mSGD9Oha-25" value="No" style="edgeLabel;html=1;align=center;verticalAlign=middle;resizable=0;points=[];" vertex="1" connectable="0" parent="2u9Lr5ev54aJ0xhAcx-F-111">
          <mxGeometry x="-0.7306" y="-1" relative="1" as="geometry">
            <mxPoint as="offset" />
          </mxGeometry>
        </mxCell>
        <mxCell id="2u9Lr5ev54aJ0xhAcx-F-113" style="edgeStyle=orthogonalEdgeStyle;rounded=0;orthogonalLoop=1;jettySize=auto;html=1;entryX=0;entryY=0.5;entryDx=0;entryDy=0;" parent="WIyWlLk6GJQsqaUBKTNV-1" source="2u9Lr5ev54aJ0xhAcx-F-56" target="2u9Lr5ev54aJ0xhAcx-F-117" edge="1">
          <mxGeometry relative="1" as="geometry" />
        </mxCell>
        <mxCell id="vHRJUm5Y4Nl0mSGD9Oha-23" value="Yes" style="edgeLabel;html=1;align=center;verticalAlign=middle;resizable=0;points=[];" vertex="1" connectable="0" parent="2u9Lr5ev54aJ0xhAcx-F-113">
          <mxGeometry x="0.0893" relative="1" as="geometry">
            <mxPoint as="offset" />
          </mxGeometry>
        </mxCell>
        <mxCell id="2u9Lr5ev54aJ0xhAcx-F-56" value="Has Metadata?" style="html=1;overflow=block;blockSpacing=1;whiteSpace=wrap;rhombus;fontSize=16.7;fontColor=#ffffff;spacing=3.8;strokeColor=#3a414a;strokeOpacity=100;fillOpacity=100;rounded=1;absoluteArcSize=1;arcSize=9;fillColor=#cc4e00;strokeWidth=1.5;lucidId=LZbpflzS91ef;" parent="WIyWlLk6GJQsqaUBKTNV-1" vertex="1">
          <mxGeometry x="2080" y="361" width="160" height="109.69" as="geometry" />
        </mxCell>
        <mxCell id="2u9Lr5ev54aJ0xhAcx-F-102" style="edgeStyle=orthogonalEdgeStyle;rounded=0;orthogonalLoop=1;jettySize=auto;html=1;entryX=0;entryY=0.5;entryDx=0;entryDy=0;" parent="WIyWlLk6GJQsqaUBKTNV-1" source="2u9Lr5ev54aJ0xhAcx-F-59" target="2u9Lr5ev54aJ0xhAcx-F-56" edge="1">
          <mxGeometry relative="1" as="geometry">
            <mxPoint x="2080" y="415.8499999999999" as="targetPoint" />
          </mxGeometry>
        </mxCell>
        <mxCell id="2u9Lr5ev54aJ0xhAcx-F-59" value="Wait new frame" style="html=1;overflow=block;blockSpacing=1;whiteSpace=wrap;fontSize=20;fontColor=#3a414a;spacing=9;strokeColor=#3a414a;strokeOpacity=100;fillOpacity=100;rounded=1;absoluteArcSize=1;arcSize=9;fillColor=#ffdda6;strokeWidth=1.5;lucidId=LZbpj7SQXTFc;" parent="WIyWlLk6GJQsqaUBKTNV-1" vertex="1">
          <mxGeometry x="1820" y="370.85" width="195" height="90" as="geometry" />
        </mxCell>
        <mxCell id="2u9Lr5ev54aJ0xhAcx-F-106" style="edgeStyle=orthogonalEdgeStyle;rounded=0;orthogonalLoop=1;jettySize=auto;html=1;exitX=0.5;exitY=1;exitDx=0;exitDy=0;" parent="WIyWlLk6GJQsqaUBKTNV-1" edge="1">
          <mxGeometry relative="1" as="geometry">
            <mxPoint x="2073.5" y="490" as="sourcePoint" />
            <mxPoint x="2073.5" y="490" as="targetPoint" />
          </mxGeometry>
        </mxCell>
        <mxCell id="2u9Lr5ev54aJ0xhAcx-F-121" style="edgeStyle=orthogonalEdgeStyle;rounded=0;orthogonalLoop=1;jettySize=auto;html=1;entryX=0;entryY=0.5;entryDx=0;entryDy=0;dashed=1;strokeWidth=2;exitX=0.5;exitY=0;exitDx=0;exitDy=0;" parent="WIyWlLk6GJQsqaUBKTNV-1" source="2u9Lr5ev54aJ0xhAcx-F-117" target="2u9Lr5ev54aJ0xhAcx-F-120" edge="1">
          <mxGeometry relative="1" as="geometry" />
        </mxCell>
        <mxCell id="2u9Lr5ev54aJ0xhAcx-F-155" style="edgeStyle=orthogonalEdgeStyle;rounded=0;orthogonalLoop=1;jettySize=auto;html=1;entryX=0;entryY=0.5;entryDx=0;entryDy=0;dashed=1;strokeWidth=2;exitX=0.5;exitY=0;exitDx=0;exitDy=0;" parent="WIyWlLk6GJQsqaUBKTNV-1" source="2u9Lr5ev54aJ0xhAcx-F-117" target="2u9Lr5ev54aJ0xhAcx-F-154" edge="1">
          <mxGeometry relative="1" as="geometry" />
        </mxCell>
        <mxCell id="2u9Lr5ev54aJ0xhAcx-F-186" style="edgeStyle=orthogonalEdgeStyle;rounded=0;orthogonalLoop=1;jettySize=auto;html=1;entryX=0;entryY=0.5;entryDx=0;entryDy=0;dashed=1;strokeWidth=2;exitX=0.5;exitY=0;exitDx=0;exitDy=0;" parent="WIyWlLk6GJQsqaUBKTNV-1" source="2u9Lr5ev54aJ0xhAcx-F-117" target="2u9Lr5ev54aJ0xhAcx-F-185" edge="1">
          <mxGeometry relative="1" as="geometry" />
        </mxCell>
        <mxCell id="vHRJUm5Y4Nl0mSGD9Oha-17" style="edgeStyle=orthogonalEdgeStyle;rounded=0;orthogonalLoop=1;jettySize=auto;html=1;entryX=0;entryY=0.25;entryDx=0;entryDy=0;exitX=1;exitY=0.5;exitDx=0;exitDy=0;" edge="1" parent="WIyWlLk6GJQsqaUBKTNV-1" source="2u9Lr5ev54aJ0xhAcx-F-117" target="2u9Lr5ev54aJ0xhAcx-F-59">
          <mxGeometry relative="1" as="geometry">
            <Array as="points">
              <mxPoint x="2660" y="416" />
              <mxPoint x="2660" y="290" />
              <mxPoint x="1790" y="290" />
              <mxPoint x="1790" y="400" />
              <mxPoint x="1820" y="400" />
            </Array>
          </mxGeometry>
        </mxCell>
        <mxCell id="2u9Lr5ev54aJ0xhAcx-F-117" value="&lt;b&gt;Generate json / npy / jpg&lt;/b&gt;&lt;b&gt;&amp;nbsp;&lt;/b&gt; file from meta-data" style="html=1;overflow=block;blockSpacing=1;whiteSpace=wrap;fontSize=20;fontColor=#3a414a;spacing=9;strokeColor=#3a414a;strokeOpacity=100;fillOpacity=100;rounded=1;absoluteArcSize=1;arcSize=9;fillColor=#ffdda6;strokeWidth=1.5;lucidId=LZbpj7SQXTFc;" parent="WIyWlLk6GJQsqaUBKTNV-1" vertex="1">
          <mxGeometry x="2360" y="370.85" width="260" height="90" as="geometry" />
        </mxCell>
        <mxCell id="2u9Lr5ev54aJ0xhAcx-F-161" style="edgeStyle=orthogonalEdgeStyle;rounded=0;orthogonalLoop=1;jettySize=auto;html=1;exitX=1;exitY=0.5;exitDx=0;exitDy=0;entryX=0.5;entryY=0;entryDx=0;entryDy=0;dashed=1;strokeWidth=2;" parent="WIyWlLk6GJQsqaUBKTNV-1" source="2u9Lr5ev54aJ0xhAcx-F-120" target="2u9Lr5ev54aJ0xhAcx-F-159" edge="1">
          <mxGeometry relative="1" as="geometry" />
        </mxCell>
        <mxCell id="2u9Lr5ev54aJ0xhAcx-F-120" value="&lt;font size=&quot;3&quot;&gt;json file&lt;/font&gt;" style="shape=dataStorage;whiteSpace=wrap;html=1;fixedSize=1;fillColor=#ffe6cc;strokeColor=#d79b00;" parent="WIyWlLk6GJQsqaUBKTNV-1" vertex="1">
          <mxGeometry x="2620" y="-20" width="200" height="80" as="geometry" />
        </mxCell>
        <mxCell id="2u9Lr5ev54aJ0xhAcx-F-160" style="edgeStyle=orthogonalEdgeStyle;rounded=0;orthogonalLoop=1;jettySize=auto;html=1;dashed=1;strokeWidth=2;" parent="WIyWlLk6GJQsqaUBKTNV-1" source="2u9Lr5ev54aJ0xhAcx-F-154" target="2u9Lr5ev54aJ0xhAcx-F-159" edge="1">
          <mxGeometry relative="1" as="geometry" />
        </mxCell>
        <mxCell id="2u9Lr5ev54aJ0xhAcx-F-154" value="&lt;font size=&quot;3&quot;&gt;npy file&lt;/font&gt;" style="shape=dataStorage;whiteSpace=wrap;html=1;fixedSize=1;fillColor=#ffe6cc;strokeColor=#d79b00;" parent="WIyWlLk6GJQsqaUBKTNV-1" vertex="1">
          <mxGeometry x="2620" y="90" width="200" height="80" as="geometry" />
        </mxCell>
        <mxCell id="twscV9d3X2h7jSA2qiTa-28" value="" style="html=1;overflow=block;blockSpacing=1;whiteSpace=wrap;fontSize=13;spacing=0;strokeColor=#ced4db;strokeOpacity=100;rounded=1;absoluteArcSize=1;arcSize=9;strokeWidth=3;lucidId=4jmkHQJY3b9r;" parent="WIyWlLk6GJQsqaUBKTNV-1" vertex="1">
          <mxGeometry x="20" y="486.44" width="6308" height="3" as="geometry" />
        </mxCell>
        <mxCell id="2u9Lr5ev54aJ0xhAcx-F-163" style="edgeStyle=orthogonalEdgeStyle;rounded=0;orthogonalLoop=1;jettySize=auto;html=1;entryX=0;entryY=0.5;entryDx=0;entryDy=0;" parent="WIyWlLk6GJQsqaUBKTNV-1" source="2u9Lr5ev54aJ0xhAcx-F-159" target="2u9Lr5ev54aJ0xhAcx-F-162" edge="1">
          <mxGeometry relative="1" as="geometry" />
        </mxCell>
        <mxCell id="2u9Lr5ev54aJ0xhAcx-F-159" value="Access detections info" style="html=1;overflow=block;blockSpacing=1;whiteSpace=wrap;fontSize=20;fontColor=#3a414a;spacing=9;strokeColor=#3a414a;strokeOpacity=100;fillOpacity=100;rounded=1;absoluteArcSize=1;arcSize=9;fillColor=#ffdda6;strokeWidth=1.5;lucidId=Gkmk1B4An0wA;" parent="WIyWlLk6GJQsqaUBKTNV-1" vertex="1">
          <mxGeometry x="3030" y="370.85" width="230" height="92.13" as="geometry" />
        </mxCell>
        <mxCell id="2u9Lr5ev54aJ0xhAcx-F-165" style="edgeStyle=orthogonalEdgeStyle;rounded=0;orthogonalLoop=1;jettySize=auto;html=1;entryX=0;entryY=0.5;entryDx=0;entryDy=0;" parent="WIyWlLk6GJQsqaUBKTNV-1" source="2u9Lr5ev54aJ0xhAcx-F-162" target="2u9Lr5ev54aJ0xhAcx-F-164" edge="1">
          <mxGeometry relative="1" as="geometry" />
        </mxCell>
        <mxCell id="2u9Lr5ev54aJ0xhAcx-F-162" value="Remove small objects" style="html=1;overflow=block;blockSpacing=1;whiteSpace=wrap;fontSize=20;fontColor=#3a414a;spacing=9;strokeColor=#3a414a;strokeOpacity=100;fillOpacity=100;rounded=1;absoluteArcSize=1;arcSize=9;fillColor=#ffdda6;strokeWidth=1.5;lucidId=Gkmk1B4An0wA;" parent="WIyWlLk6GJQsqaUBKTNV-1" vertex="1">
          <mxGeometry x="3330" y="370.85" width="230" height="92.13" as="geometry" />
        </mxCell>
        <mxCell id="2u9Lr5ev54aJ0xhAcx-F-167" style="edgeStyle=orthogonalEdgeStyle;rounded=0;orthogonalLoop=1;jettySize=auto;html=1;entryX=0;entryY=0.5;entryDx=0;entryDy=0;" parent="WIyWlLk6GJQsqaUBKTNV-1" source="2u9Lr5ev54aJ0xhAcx-F-164" target="2u9Lr5ev54aJ0xhAcx-F-166" edge="1">
          <mxGeometry relative="1" as="geometry" />
        </mxCell>
        <mxCell id="2u9Lr5ev54aJ0xhAcx-F-164" value="&lt;b&gt;Mass estimation&lt;/b&gt;" style="html=1;overflow=block;blockSpacing=1;whiteSpace=wrap;fontSize=20;fontColor=#3a414a;spacing=9;strokeColor=#3a414a;strokeOpacity=100;fillOpacity=100;rounded=1;absoluteArcSize=1;arcSize=9;fillColor=#ffdda6;strokeWidth=1.5;lucidId=Gkmk1B4An0wA;" parent="WIyWlLk6GJQsqaUBKTNV-1" vertex="1">
          <mxGeometry x="3620" y="370.85" width="230" height="92.13" as="geometry" />
        </mxCell>
        <mxCell id="2u9Lr5ev54aJ0xhAcx-F-169" style="edgeStyle=orthogonalEdgeStyle;rounded=0;orthogonalLoop=1;jettySize=auto;html=1;" parent="WIyWlLk6GJQsqaUBKTNV-1" source="2u9Lr5ev54aJ0xhAcx-F-166" target="2u9Lr5ev54aJ0xhAcx-F-168" edge="1">
          <mxGeometry relative="1" as="geometry" />
        </mxCell>
        <mxCell id="2u9Lr5ev54aJ0xhAcx-F-166" value="Find and send detections for&lt;b&gt; active learning&amp;nbsp;&lt;/b&gt;" style="html=1;overflow=block;blockSpacing=1;whiteSpace=wrap;fontSize=20;fontColor=#3a414a;spacing=9;strokeColor=#3a414a;strokeOpacity=100;fillOpacity=100;rounded=1;absoluteArcSize=1;arcSize=9;fillColor=#ffdda6;strokeWidth=1.5;lucidId=Gkmk1B4An0wA;" parent="WIyWlLk6GJQsqaUBKTNV-1" vertex="1">
          <mxGeometry x="3906" y="370.85" width="254" height="92.13" as="geometry" />
        </mxCell>
        <mxCell id="2u9Lr5ev54aJ0xhAcx-F-171" style="edgeStyle=orthogonalEdgeStyle;rounded=0;orthogonalLoop=1;jettySize=auto;html=1;entryX=0;entryY=0.5;entryDx=0;entryDy=0;dashed=1;strokeWidth=2;" parent="WIyWlLk6GJQsqaUBKTNV-1" source="2u9Lr5ev54aJ0xhAcx-F-168" target="2u9Lr5ev54aJ0xhAcx-F-170" edge="1">
          <mxGeometry relative="1" as="geometry" />
        </mxCell>
        <mxCell id="2u9Lr5ev54aJ0xhAcx-F-183" style="edgeStyle=orthogonalEdgeStyle;rounded=0;orthogonalLoop=1;jettySize=auto;html=1;entryX=0;entryY=0.5;entryDx=0;entryDy=0;" parent="WIyWlLk6GJQsqaUBKTNV-1" source="2u9Lr5ev54aJ0xhAcx-F-168" target="2u9Lr5ev54aJ0xhAcx-F-182" edge="1">
          <mxGeometry relative="1" as="geometry" />
        </mxCell>
        <mxCell id="2u9Lr5ev54aJ0xhAcx-F-168" value="Fill &lt;b&gt;jsonl &lt;/b&gt;file" style="html=1;overflow=block;blockSpacing=1;whiteSpace=wrap;fontSize=20;fontColor=#3a414a;spacing=9;strokeColor=#3a414a;strokeOpacity=100;fillOpacity=100;rounded=1;absoluteArcSize=1;arcSize=9;fillColor=#ffdda6;strokeWidth=1.5;lucidId=Gkmk1B4An0wA;" parent="WIyWlLk6GJQsqaUBKTNV-1" vertex="1">
          <mxGeometry x="4230" y="370.85" width="254" height="92.13" as="geometry" />
        </mxCell>
        <mxCell id="2u9Lr5ev54aJ0xhAcx-F-190" style="edgeStyle=orthogonalEdgeStyle;rounded=0;orthogonalLoop=1;jettySize=auto;html=1;entryX=0.5;entryY=0;entryDx=0;entryDy=0;dashed=1;strokeWidth=2;" parent="WIyWlLk6GJQsqaUBKTNV-1" source="2u9Lr5ev54aJ0xhAcx-F-170" target="2u9Lr5ev54aJ0xhAcx-F-182" edge="1">
          <mxGeometry relative="1" as="geometry">
            <Array as="points">
              <mxPoint x="4687" y="110" />
            </Array>
          </mxGeometry>
        </mxCell>
        <mxCell id="2u9Lr5ev54aJ0xhAcx-F-170" value="&lt;font size=&quot;3&quot;&gt;&lt;b&gt;josnl&lt;/b&gt; file&lt;/font&gt;" style="shape=dataStorage;whiteSpace=wrap;html=1;fixedSize=1;fillColor=#ffe6cc;strokeColor=#d79b00;" parent="WIyWlLk6GJQsqaUBKTNV-1" vertex="1">
          <mxGeometry x="4440" y="70" width="200" height="80" as="geometry" />
        </mxCell>
        <mxCell id="2u9Lr5ev54aJ0xhAcx-F-172" value="exit" style="html=1;overflow=block;blockSpacing=1;whiteSpace=wrap;fontSize=20;spacing=9;strokeColor=#23445d;strokeOpacity=100;fillOpacity=100;rounded=1;absoluteArcSize=1;arcSize=9;fillColor=#bac8d3;strokeWidth=1.5;lucidId=Gkmk1B4An0wA;" parent="WIyWlLk6GJQsqaUBKTNV-1" vertex="1">
          <mxGeometry x="4890" y="385.10999999999996" width="130" height="63.62" as="geometry" />
        </mxCell>
        <mxCell id="2u9Lr5ev54aJ0xhAcx-F-174" value="&lt;h1 style=&quot;margin-top: 0px;&quot;&gt;Capture / inference&lt;/h1&gt;" style="text;html=1;whiteSpace=wrap;overflow=hidden;rounded=0;" parent="WIyWlLk6GJQsqaUBKTNV-1" vertex="1">
          <mxGeometry x="371" y="294.04" width="249" height="45.96" as="geometry" />
        </mxCell>
        <mxCell id="2u9Lr5ev54aJ0xhAcx-F-176" value="&lt;h1 style=&quot;margin-top: 0px;&quot;&gt;process&lt;/h1&gt;" style="text;html=1;whiteSpace=wrap;overflow=hidden;rounded=0;" parent="WIyWlLk6GJQsqaUBKTNV-1" vertex="1">
          <mxGeometry x="3010" y="298.55999999999995" width="180" height="120" as="geometry" />
        </mxCell>
        <mxCell id="2u9Lr5ev54aJ0xhAcx-F-184" style="edgeStyle=orthogonalEdgeStyle;rounded=0;orthogonalLoop=1;jettySize=auto;html=1;" parent="WIyWlLk6GJQsqaUBKTNV-1" source="2u9Lr5ev54aJ0xhAcx-F-182" target="2u9Lr5ev54aJ0xhAcx-F-172" edge="1">
          <mxGeometry relative="1" as="geometry" />
        </mxCell>
        <mxCell id="2u9Lr5ev54aJ0xhAcx-F-182" value="Send data to cloud" style="html=1;overflow=block;blockSpacing=1;whiteSpace=wrap;fontSize=20;fontColor=#3a414a;spacing=9;strokeColor=#3a414a;strokeOpacity=100;fillOpacity=100;rounded=1;absoluteArcSize=1;arcSize=9;fillColor=#ffdda6;strokeWidth=1.5;lucidId=Gkmk1B4An0wA;" parent="WIyWlLk6GJQsqaUBKTNV-1" vertex="1">
          <mxGeometry x="4560" y="370.8500000000001" width="254" height="92.13" as="geometry" />
        </mxCell>
        <mxCell id="vHRJUm5Y4Nl0mSGD9Oha-21" style="edgeStyle=orthogonalEdgeStyle;rounded=0;orthogonalLoop=1;jettySize=auto;html=1;dashed=1;strokeWidth=2;" edge="1" parent="WIyWlLk6GJQsqaUBKTNV-1" source="2u9Lr5ev54aJ0xhAcx-F-185" target="2u9Lr5ev54aJ0xhAcx-F-182">
          <mxGeometry relative="1" as="geometry">
            <Array as="points">
              <mxPoint x="4687" y="-90" />
            </Array>
          </mxGeometry>
        </mxCell>
        <mxCell id="2u9Lr5ev54aJ0xhAcx-F-185" value="&lt;font size=&quot;3&quot;&gt;thumbnail and &lt;br&gt;first image&lt;/font&gt;" style="shape=dataStorage;whiteSpace=wrap;html=1;fixedSize=1;fillColor=#ffe6cc;strokeColor=#d79b00;" parent="WIyWlLk6GJQsqaUBKTNV-1" vertex="1">
          <mxGeometry x="2630" y="-130" width="200" height="80" as="geometry" />
        </mxCell>
        <mxCell id="vHRJUm5Y4Nl0mSGD9Oha-7" value="" style="edgeStyle=orthogonalEdgeStyle;rounded=0;orthogonalLoop=1;jettySize=auto;html=1;" edge="1" parent="WIyWlLk6GJQsqaUBKTNV-1" source="twscV9d3X2h7jSA2qiTa-24" target="vHRJUm5Y4Nl0mSGD9Oha-5">
          <mxGeometry relative="1" as="geometry">
            <mxPoint x="850" y="595" as="sourcePoint" />
            <mxPoint x="1310" y="584" as="targetPoint" />
          </mxGeometry>
        </mxCell>
        <mxCell id="vHRJUm5Y4Nl0mSGD9Oha-8" style="rounded=0;orthogonalLoop=1;jettySize=auto;html=1;" edge="1" parent="WIyWlLk6GJQsqaUBKTNV-1" source="vHRJUm5Y4Nl0mSGD9Oha-5" target="twscV9d3X2h7jSA2qiTa-25">
          <mxGeometry relative="1" as="geometry" />
        </mxCell>
        <mxCell id="vHRJUm5Y4Nl0mSGD9Oha-9" style="rounded=0;orthogonalLoop=1;jettySize=auto;html=1;" edge="1" parent="WIyWlLk6GJQsqaUBKTNV-1" source="vHRJUm5Y4Nl0mSGD9Oha-5" target="2u9Lr5ev54aJ0xhAcx-F-13">
          <mxGeometry relative="1" as="geometry" />
        </mxCell>
        <mxCell id="vHRJUm5Y4Nl0mSGD9Oha-5" value="&lt;div style=&quot;display: flex; justify-content: center; text-align: center; align-items: baseline; line-height: 1.25; margin-top: -2px;&quot;&gt;&lt;span style=&quot;color: rgb(58, 65, 74);&quot;&gt;&lt;br&gt;&lt;span style=&quot;font-size: 18.3px;&quot;&gt;tee&lt;/span&gt;&lt;/span&gt;&lt;/div&gt;" style="html=1;overflow=block;blockSpacing=1;whiteSpace=wrap;fontSize=13;spacing=3.8;verticalAlign=top;strokeColor=#6c8ebf;strokeOpacity=100;fillOpacity=100;rounded=1;absoluteArcSize=1;arcSize=9;fillColor=#dae8fc;strokeWidth=1.5;lucidId=0~OilkY4ChpM;" vertex="1" parent="WIyWlLk6GJQsqaUBKTNV-1">
          <mxGeometry x="904" y="629.9994573632282" width="190" height="100.8220126982532" as="geometry" />
        </mxCell>
        <mxCell id="vHRJUm5Y4Nl0mSGD9Oha-12" value="* One tracker instance per minute" style="text;html=1;align=center;verticalAlign=middle;whiteSpace=wrap;rounded=0;" vertex="1" parent="WIyWlLk6GJQsqaUBKTNV-1">
          <mxGeometry x="1471.25" y="667.1" width="192.5" height="30" as="geometry" />
        </mxCell>
        <mxCell id="vHRJUm5Y4Nl0mSGD9Oha-14" style="edgeStyle=orthogonalEdgeStyle;rounded=0;orthogonalLoop=1;jettySize=auto;html=1;entryX=0.5;entryY=1;entryDx=0;entryDy=0;strokeColor=#10739e;strokeWidth=2;fillColor=#b1ddf0;exitX=0;exitY=0.5;exitDx=0;exitDy=0;" edge="1" parent="WIyWlLk6GJQsqaUBKTNV-1" source="2u9Lr5ev54aJ0xhAcx-F-8" target="2u9Lr5ev54aJ0xhAcx-F-59">
          <mxGeometry relative="1" as="geometry">
            <Array as="points">
              <mxPoint x="1720" y="617" />
              <mxPoint x="1720" y="530" />
              <mxPoint x="1930" y="530" />
              <mxPoint x="1930" y="461" />
            </Array>
            <mxPoint x="2190" y="772" as="sourcePoint" />
            <mxPoint x="2600" y="584" as="targetPoint" />
          </mxGeometry>
        </mxCell>
      </root>
    </mxGraphModel>
  </diagram>
</mxfile>
